# xmcd
#
# Track frame offsets: 
#        150
#        15655
#        30182
#        44100
#        56257
#        70047
#        83135
#        96375
#        108812
#        122110
#        135442
#        147437
#        160285
#        172935
#
# Disc length: 2463 seconds
#
# Revision: 0
# Processed by: cddbd v1.5.2PL0 Copyright (c) Steve Scherf et al.
# Submitted via: ExactAudioCopyFreeDBPlugin 1.0
#
DISCID=b1099d0e
DTITLE=Various Artist - OKeh Chicago Blues
DYEAR=1982
DGENRE=Blues
TTITLE0=Big Boy Edwards - Good Doing Daddy
TTITLE1=Victoria Spivey and Her Chicago Four - Hollywood Stomp
TTITLE2=Curtis Jones - Blues and Trouble
TTITLE3=Roosevelt Scott - Brownskin Woman Swing
TTITLE4=Peter Chatman and His Washboard Band - Miss Ora Lee Blues
TTITLE5=Brownie McGhee - Born for Bad Luck
TTITLE6=Champion Jack Dupree - Weed Head Woman
TTITLE7=Roosevelt Sykes (The Honey Dripper) - 15 Cents a Day
TTITLE8=Tony Hollins - Crawlin' King Snake
TTITLE9=Peter Cleighton - Confessin' the Blues
TTITLE10=Memphis Minnie - I am Sailin'
TTITLE11=Little Son Joe - Just Had to Holler
TTITLE12=Big Bill and His Rhythm Band - I Can't Write
TTITLE13=Yas Yas Girl (Merline Johnson) - Bad Whiskey Blues
EXTD=
EXTT0=
EXTT1=
EXTT2=
EXTT3=
EXTT4=
EXTT5=
EXTT6=
EXTT7=
EXTT8=
EXTT9=
EXTT10=
EXTT11=
EXTT12=
EXTT13=
PLAYORDER=
